{"title":"Deadheads 2011 720p BRRip x264 Feel-Free","uid":6833534,"size":2429220808,"categoryP":"video","categoryS":"hd___movies","magnet":"?xt=urn:btih:e390d235db5a288de81fe8c7b9e97caa285c8017&amp;dn=Deadheads+2011+720p+BRRip+x264+Feel-Free&amp;tr=udp%3A%2F%2Ftracker.openbittorrent.com%3A80&amp;tr=udp%3A%2F%2Fopen.demonii.com%3A1337&amp;tr=udp%3A%2F%2Ftracker.coppersurfer.tk%3A6969&amp;tr=udp%3A%2F%2Fexodus.desync.com%3A6969","seeders":0,"leechers":1,"uploader":"hiest","files":-1,"time":1321946804,"description":"Full Credits To Feel Free :)\n\n ######## ######## ######## ##          ######## ########  ######## ######## \n ##       ##       ##       ##          ##       ##     ## ##       ##       \n ##       ##       ##       ##          ##       ##     ## ##       ##       \n ######   ######   ######   ##          ######   ########  ######   ######   \n ##       ##       ##       ##          ##       ##   ##   ##       ##       \n ##       ##       ##       ##          ##       ##    ##  ##       ##       \n ##       ######## ######## ########    ##       ##     ## ######## ########\n\n Genre:Adventure | Comedy | Horror \n Language:English\n &lt;a href=&quot; http://www.imdb.com/title/tt1273207/&quot; rel=&quot;nofollow&quot; target=&quot;_NEW&quot;&gt; http://www.imdb.com/title/tt1273207/&lt;/a&gt;\n Source:720p BluRay x264-RSG Thanks!\n\n Format : MPEG-4\n Format profile : Base Media\n Codec ID : isom\n File size : 2.26 GiB\n Duration : 1h 34mn\n Overall bit rate : 3 408 Kbps\n\n Video\n ID : 1\n Format : AVC\n Format/Info : Advanced Video Codec\n Format profile : &lt;a class=&quot;__cf_email__&quot; href=&quot;/cdn-cgi/l/email-protection&quot; data-cfemail=&quot;357d5c525d7579001b04&quot;&gt;[email&amp;#160;protected]&lt;/a&gt;&lt;script cf-hash='f9e31' type=&quot;text/javascript&quot;&gt;\n/* &lt;![CDATA[ */!function(){try{var t=&quot;currentScript&quot;in document?document.currentScript:function(){for(var t=document.getElementsByTagName(&quot;script&quot;),e=t.length;e--;)if(t[e].getAttribute(&quot;cf-hash&quot;))return t[e]}();if(t&amp;&amp;t.previousSibling){var e,r,n,i,c=t.previousSibling,a=c.getAttribute(&quot;data-cfemail&quot;);if(a){for(e=&quot;&quot;,r=parseInt(a.substr(0,2),16),n=2;a.length-n;n+=2)i=parseInt(a.substr(n,2),16)^r,e+=String.fromCharCode(i);e=document.createTextNode(e),c.parentNode.replaceChild(e,c)}}}catch(u){}}();/* ]]&gt; */&lt;/script&gt;\n Format settings, CABAC : Yes\n Format settings, ReFrames : 3 frames\n Codec ID : avc1\n Codec ID/Info : Advanced Video Coding\n Duration : 1h 34mn\n Bit rate mode : Variable\n Bit rate : 3 000 Kbps\n Maximum bit rate : 11.2 Mbps\n Width : 1 280 pixels\n Height : 720 pixels\n Display aspect ratio : 16:9\n Frame rate mode : Constant\n Frame rate : 23.976 fps\n Color space : YUV\n Chroma subsampling : 4:2:0\n Bit depth : 8 bits\n Scan type : Progressive\n Bits/(Pixel*Frame) : 0.136\n Stream size : 1.96 GiB (87%)\n Writing library : x264\n\n Audio\n ID : 2\n Format : AAC\n Format/Info : Advanced Audio Codec\n Format version : Version 4\n Format profile : LC\n Format settings, SBR : No\n Codec ID : 40\n Duration : 1h 34mn\n Bit rate mode : Variable\n Bit rate : 445 Kbps\n Maximum bit rate : 552 Kbps\n Channel(s) : 6 channels\n Channel positions : Front: L C R, Side: L R, LFE\n Sampling rate : 48.0 KHz\n Stream size : 302 MiB (13%)\n\n\n Plot:\n Two inexplicably coherent zombies awake amidst a zombie attack and decide to \n take a road trip to find the one's lost love, unaware they are being chased by \n the agents of a ruthless company with it's own agenda\n\n\n Greets:\n\n INK,CRYS,IMAGINE,LKRG,FXG,3Li,FLAWL3SS,TA,iLLUSiON,ViSiON,DTRG \n SAFCuk009,LU,TheFalcon007,MYSTiC,PrisM,Noir,WBZ,LAP,Rx,Kingdom,SAFCuk009+Fabreezy,\n HDLiTE,TWiZTED,ExtraTorrentRG.ELEKTRI4KA,MAGNAT,CM8\n And to all the other p2p grps past and present\n\n\n\n\n\n\n                                                      \n     \n &lt;a href=&quot; http://thepiratebay.se/user/hiest&quot; rel=&quot;nofollow&quot; target=&quot;_NEW&quot;&gt; http://thepiratebay.se/user/hiest&lt;/a&gt;\n\n\n\n\n\n\n\n\n Screenshots:\n\n &lt;a href=&quot; http://postimg.com/53000/photo-52738.jpg&quot; rel=&quot;nofollow&quot; target=&quot;_NEW&quot;&gt; http://postimg.com/53000/photo-52738.jpg&lt;/a&gt;\n\n &lt;a href=&quot; http://postimg.com/53000/photo-52739.jpg&quot; rel=&quot;nofollow&quot; target=&quot;_NEW&quot;&gt; http://postimg.com/53000/photo-52739.jpg&lt;/a&gt;\n\n &lt;a href=&quot; http://postimg.com/image/53000/photo-52740.jpg&quot; rel=&quot;nofollow&quot; target=&quot;_NEW&quot;&gt; http://postimg.com/image/53000/photo-52740.jpg&lt;/a&gt;\n\n &lt;a href=&quot; http://postimg.com/image/53000/photo-52741.jpg&quot; rel=&quot;nofollow&quot; target=&quot;_NEW&quot;&gt; http://postimg.com/image/53000/photo-52741.jpg&lt;/a&gt;\n \n\n Full Credits To Feel Free :)\n\n ######## ######## ######## ##          ######## ########  ######## ######## \n ##       ##       ##       ##          ##       ##     ## ##       ##       \n ##       ##       ##       ##          ##       ##     ## ##       ##       \n ######   ######   ######   ##          ######   ########  ######   ######   \n ##       ##       ##       ##          ##       ##   ##   ##       ##       \n ##       ##       ##       ##          ##       ##    ##  ##       ##       \n ##       ######## ######## ########    ##       ##     ## ######## ########","torrent":{"xt":"urn:btih:e390d235db5a288de81fe8c7b9e97caa285c8017","amp;dn":"Deadheads+2011+720p+BRRip+x264+Feel-Free","amp;tr":["udp%3A%2F%2Ftracker.openbittorrent.com%3A80","udp%3A%2F%2Fopen.demonii.com%3A1337","udp%3A%2F%2Ftracker.coppersurfer.tk%3A6969","udp%3A%2F%2Fexodus.desync.com%3A6969"],"infoHash":"e390d235db5a288de81fe8c7b9e97caa285c8017","infoHashBuffer":{"type":"Buffer","data":[227,144,210,53,219,90,40,141,232,31,232,199,185,233,124,170,40,92,128,23]},"announce":[],"urlList":[]}}